<?xml version="1.0" standalone="no"?>
<!DOCTYPE svg PUBLIC "-//W3C//DTD SVG 20010904//EN"
 "http://www.w3.org/TR/2001/REC-SVG-20010904/DTD/svg10.dtd">
<svg version="1.0" xmlns="http://www.w3.org/2000/svg"
 width="959.000000pt" height="959.000000pt" viewBox="0 0 959.000000 959.000000"
 preserveAspectRatio="xMidYMid meet">
<metadata>
Created by potrace 1.14, written by Peter Selinger 2001-2017
</metadata>
<g transform="translate(0.000000,959.000000) scale(0.100000,-0.100000)"
fill="#000000" stroke="none">
<path d="M0 4795 l0 -4795 2288 0 c2232 0 2289 0 2306 19 18 20 48 18 67 -5
10 -12 382 -14 2470 -14 l2459 0 0 4443 c-1 4233 -1 4441 -18 4422 -10 -11
-33 -31 -52 -44 -35 -25 -62 -47 -107 -88 -13 -13 -26 -23 -28 -23 -2 0 -16
-11 -30 -24 -14 -13 -46 -29 -70 -35 -27 -7 -45 -17 -45 -26 0 -14 -80 -75
-99 -75 -6 0 -8 -7 -5 -15 4 -9 0 -15 -10 -15 -21 0 -86 -32 -86 -42 0 -4 -8
-8 -18 -8 -10 0 -32 -12 -49 -27 -18 -16 -41 -35 -53 -43 -13 -8 -28 -19 -34
-25 -22 -19 -74 -45 -91 -45 -9 0 -19 -9 -22 -19 -3 -11 -17 -25 -32 -31 -50
-20 -144 -78 -153 -94 -5 -9 -15 -16 -22 -16 -8 0 -20 -7 -27 -17 -8 -9 -25
-21 -39 -27 -41 -18 -99 -60 -105 -76 -18 -46 -44 -82 -72 -98 -57 -32 -113
-72 -113 -82 0 -6 -5 -10 -11 -10 -6 0 -25 -11 -43 -25 -18 -14 -37 -25 -43
-25 -12 0 -196 -178 -209 -202 -5 -10 -24 -19 -42 -21 -40 -5 -91 -52 -124
-113 -13 -24 -31 -47 -40 -50 -10 -3 -18 -9 -18 -14 0 -4 -15 -11 -34 -14 -18
-4 -41 -15 -51 -26 -10 -11 -26 -20 -35 -20 -10 0 -36 -18 -58 -40 -22 -22
-44 -40 -50 -40 -5 0 -12 -9 -15 -19 -2 -11 -20 -30 -40 -43 -19 -12 -67 -45
-107 -71 -40 -26 -74 -57 -77 -67 -3 -11 -12 -20 -19 -20 -8 0 -14 -6 -14 -13
0 -8 -17 -30 -37 -50 -59 -56 -83 -88 -83 -112 0 -12 -8 -33 -18 -46 -10 -13
-24 -38 -31 -55 -7 -18 -26 -44 -42 -60 -33 -31 -36 -46 -14 -64 8 -7 15 -23
15 -36 0 -13 10 -34 21 -45 18 -18 20 -29 15 -68 -4 -32 -1 -52 9 -65 8 -11
15 -30 15 -43 0 -13 9 -33 19 -45 14 -15 18 -29 14 -50 -4 -18 0 -35 9 -46 9
-9 19 -39 23 -67 7 -50 23 -89 56 -135 9 -14 22 -50 28 -80 13 -61 42 -140 53
-140 3 0 2 -15 -3 -34 -9 -33 -4 -57 20 -96 18 -29 43 -115 48 -164 5 -47 -8
-91 -32 -108 -6 -5 -2 -23 12 -50 16 -30 24 -69 28 -132 4 -50 11 -99 17 -110
10 -18 13 -93 9 -186 -1 -14 1 -92 3 -175 4 -114 2 -155 -8 -170 -20 -31 -29
-99 -17 -139 7 -28 6 -47 -6 -81 -8 -25 -19 -43 -24 -39 -5 3 -4 -7 1 -21 13
-34 13 -110 0 -80 -7 17 -9 17 -9 3 -1 -10 -7 -18 -15 -18 -8 0 -17 -16 -21
-37 -4 -21 -13 -49 -20 -63 -7 -14 -18 -56 -25 -95 -6 -38 -18 -81 -27 -94
-25 -38 -2 -50 102 -53 89 -3 147 11 194 46 20 15 132 33 226 35 54 2 95 9
125 22 63 28 130 36 130 17 0 -8 -8 -24 -17 -36 -10 -11 -26 -30 -35 -41 -10
-12 -27 -21 -38 -21 -11 0 -23 -7 -26 -15 -4 -8 -12 -15 -18 -15 -7 0 -31 -9
-54 -20 -22 -11 -47 -20 -54 -20 -8 0 -32 -18 -53 -40 -22 -23 -65 -53 -95
-68 -30 -15 -57 -31 -59 -35 -2 -5 -17 -21 -34 -35 -17 -15 -42 -37 -54 -50
-13 -12 -28 -22 -33 -22 -4 0 -10 -4 -12 -8 -1 -4 -20 -18 -40 -31 -21 -12
-38 -29 -38 -36 0 -29 -34 -34 -159 -21 -91 9 -126 17 -132 28 -14 25 -122 32
-199 13 -68 -17 -151 -55 -185 -86 -11 -10 -41 -24 -68 -31 -26 -7 -54 -21
-61 -33 -33 -49 -77 -85 -105 -85 -15 0 -50 -12 -77 -27 -46 -24 -56 -26 -171
-24 -78 0 -123 -3 -123 -9 0 -6 -11 -15 -24 -21 -18 -9 -30 -7 -55 5 -17 9
-64 19 -104 21 -39 2 -99 8 -132 12 -121 14 -164 1 -187 -57 -12 -30 -12 -104
1 -147 10 -33 -6 -108 -25 -121 -6 -4 -23 -29 -38 -56 -16 -27 -39 -64 -52
-84 -13 -19 -24 -45 -24 -58 0 -12 -4 -25 -9 -28 -5 -4 -12 -30 -16 -59 -9
-68 -34 -157 -45 -157 -5 0 -14 -16 -20 -35 -7 -20 -24 -42 -41 -52 -16 -10
-29 -22 -29 -29 0 -14 -35 -46 -43 -38 -3 3 -10 -4 -17 -15 -6 -12 -14 -20
-18 -17 -4 2 -27 0 -52 -4 -40 -8 -70 -5 -167 15 -12 3 -25 15 -29 28 -4 12
-15 33 -25 46 -11 13 -19 36 -19 52 0 43 -29 109 -49 109 -9 0 -36 -18 -61
-40 -41 -36 -50 -40 -102 -40 -54 0 -58 -1 -58 -24 0 -23 -4 -24 -80 -31 -44
-4 -80 -11 -80 -16 0 -5 -7 -9 -15 -9 -9 0 -18 -7 -21 -15 -3 -8 -14 -17 -25
-20 -10 -4 -19 -15 -19 -26 0 -16 -7 -19 -55 -19 -30 0 -55 5 -55 10 0 6 7 10
15 10 8 0 15 7 15 15 0 11 -11 15 -40 15 -29 0 -40 -4 -40 -15 0 -14 -4 -14
-36 0 -43 18 -114 19 -182 4 -42 -10 -57 -9 -91 5 -23 9 -53 16 -66 16 -14 0
-25 4 -25 9 0 5 -17 12 -37 16 -47 9 -91 40 -105 74 -6 15 -12 21 -15 14 -3
-8 -22 -13 -44 -13 -39 0 -39 0 -39 -40 0 -38 -2 -40 -30 -40 -20 0 -30 5 -30
15 0 8 -6 24 -12 35 -10 15 -10 22 -2 28 9 5 7 17 -5 42 -13 28 -23 36 -49 38
-30 3 -32 6 -32 39 0 28 -8 44 -35 69 -18 19 -39 34 -45 34 -7 0 -31 -20 -56
-45 -45 -47 -68 -56 -78 -30 -4 12 -26 15 -109 15 -81 0 -107 3 -117 15 -7 8
-16 15 -21 15 -19 0 -69 54 -69 74 0 21 -31 56 -49 56 -16 0 -41 68 -41 112 0
38 -5 49 -40 83 -21 21 -37 42 -34 46 3 5 -5 16 -16 26 -31 25 -39 53 -31 100
6 29 3 57 -9 96 -18 58 -29 131 -35 226 -2 31 -6 82 -9 113 -14 142 -17 167
-21 239 -4 71 -2 79 21 105 22 25 25 36 21 80 -5 54 20 150 43 164 8 5 11 19
7 39 -4 18 -4 58 0 91 5 50 9 60 25 60 13 0 21 10 25 33 4 17 6 36 5 40 -1 4
-3 46 -3 92 0 47 -5 88 -10 91 -6 4 -6 11 1 19 8 10 5 20 -15 40 -14 16 -25
36 -25 46 0 11 -19 26 -55 43 -51 25 -56 30 -70 79 -13 44 -21 55 -54 71 -40
19 -44 26 -57 116 -9 57 -41 117 -73 136 -21 13 -36 35 -52 78 -12 33 -35 73
-50 87 -37 34 -38 74 -4 101 32 25 31 43 -1 89 -28 41 -28 37 -17 173 6 64 13
101 21 104 16 5 16 22 0 22 -7 0 -20 18 -30 40 l-16 39 34 33 c22 22 34 42 34
61 0 16 -4 26 -9 22 -5 -3 -12 -1 -15 4 -6 9 6 37 37 83 14 21 16 31 8 47 -21
38 -10 128 18 151 11 8 31 60 31 78 0 9 17 26 38 37 25 13 38 28 40 45 2 14
10 32 18 41 12 14 13 24 2 64 -12 43 -11 48 6 61 13 9 24 10 37 4 14 -8 24 -3
48 27 17 21 31 42 31 46 0 11 61 67 73 67 4 0 7 7 7 15 0 21 33 73 78 121 12
14 22 29 22 35 0 12 51 58 65 59 6 0 17 11 25 24 55 86 72 106 92 106 22 0 88
39 88 53 0 4 9 7 19 7 11 0 22 4 26 9 3 5 19 12 35 16 17 4 46 22 64 41 18 19
43 34 56 34 35 0 86 37 104 75 22 46 52 65 103 65 42 0 74 19 85 50 2 7 22 14
45 15 22 1 56 10 74 19 19 9 67 28 106 41 73 25 114 44 166 79 22 15 38 17 82
12 55 -6 69 0 134 63 9 8 28 11 52 8 22 -3 49 1 64 9 15 8 33 14 40 14 7 0 22
16 33 35 13 21 31 37 49 41 15 3 51 16 78 29 28 12 72 25 99 29 27 4 55 14 62
21 21 21 27 63 13 96 -11 29 -11 33 12 50 13 10 38 19 54 21 l30 3 -3 75 c-1
41 -9 95 -17 120 -7 25 -16 73 -18 108 -5 58 -3 66 21 95 28 33 47 62 59 86 3
7 -2 26 -11 42 -9 16 -19 50 -22 76 -5 41 -2 54 20 86 24 34 25 41 15 80 -23
90 -23 105 5 138 20 24 26 41 26 80 0 27 4 49 10 49 16 0 27 63 20 117 -7 59
1 80 36 93 31 12 39 48 26 123 -6 37 -6 64 0 68 5 3 11 22 15 42 l6 37 -2432
0 -2431 0 0 -4795z m4210 3075 c0 -5 -4 -10 -10 -10 -5 0 -10 5 -10 10 0 6 5
10 10 10 6 0 10 -4 10 -10z m70 -6500 c0 -11 -4 -20 -9 -20 -5 0 -7 9 -4 20 3
11 7 20 9 20 2 0 4 -9 4 -20z m-10 -41 c0 -6 -11 -43 -25 -82 -13 -40 -30
-115 -37 -167 -24 -175 -7 -612 24 -631 11 -7 28 -139 18 -139 -7 0 -30 92
-30 121 0 10 -4 19 -9 19 -26 0 -63 231 -57 355 4 78 2 85 -15 85 -21 0 -45
-32 -55 -75 -9 -42 -54 -176 -65 -197 -6 -10 -17 -18 -25 -18 -13 0 -15 7 -10
38 4 20 11 62 16 92 18 109 49 232 64 255 9 13 31 29 51 36 38 14 48 45 18 56
-28 10 -31 22 -20 66 6 25 23 54 42 72 18 17 40 46 50 65 24 47 65 78 65 49z
m-470 -345 c0 -9 -13 -44 -29 -78 -17 -34 -34 -81 -40 -105 -11 -49 -15 -56
-31 -46 -24 15 8 138 52 203 30 44 48 54 48 26z m-203 -299 c34 0 64 -3 68 -7
12 -12 -39 -32 -85 -34 -25 -1 -57 -5 -72 -9 -22 -6 -27 -3 -33 16 -9 27 20
54 45 42 8 -4 43 -8 77 -8z m33 -104 c11 -21 -1 -66 -19 -72 -5 -2 -20 -24
-33 -49 -18 -35 -30 -46 -56 -51 -34 -7 -87 -56 -98 -91 -3 -11 -11 -17 -17
-15 -6 2 -38 -16 -70 -40 -32 -23 -76 -48 -98 -54 -21 -7 -39 -16 -39 -21 0
-4 -9 -8 -20 -8 -12 0 -32 -7 -45 -16 -27 -17 -118 -44 -152 -44 -17 0 -23 6
-23 23 0 17 11 27 48 44 26 12 62 38 80 57 19 20 39 36 46 36 7 0 25 11 40 25
l27 25 -19 28 c-11 15 -29 36 -41 46 -12 11 -21 25 -21 32 0 19 31 33 54 24
32 -13 118 -40 154 -50 31 -8 32 -7 32 22 0 38 25 58 62 51 34 -7 98 5 98 17
0 6 8 19 18 29 9 11 25 31 35 45 21 31 42 33 57 7z m350 -158 c0 -20 -3 -24
-11 -16 -7 7 -9 19 -6 27 10 24 17 19 17 -11z m292 -158 c9 -20 9 -28 -2 -38
-10 -9 -11 -9 -6 1 4 7 0 24 -8 37 -9 14 -12 25 -6 25 6 0 16 -11 22 -25z"/>
<path d="M6492 9578 c-7 -7 -12 -16 -12 -22 0 -5 -11 -23 -23 -40 -13 -17 -30
-52 -38 -78 -7 -27 -17 -48 -21 -48 -4 0 -8 -11 -8 -24 0 -14 -5 -28 -11 -31
-5 -4 -23 -35 -39 -70 -16 -35 -34 -66 -39 -70 -6 -3 -11 -14 -11 -23 0 -10
-11 -29 -25 -44 -14 -15 -25 -33 -25 -40 -1 -15 -34 -58 -46 -58 -12 0 -33
-34 -34 -55 0 -11 -14 -36 -30 -55 -17 -19 -30 -40 -30 -48 0 -13 -36 -71 -51
-82 -10 -8 -49 -83 -49 -96 0 -6 -8 -18 -19 -28 -10 -9 -26 -36 -36 -59 -29
-70 -58 -132 -65 -137 -19 -15 -59 -82 -75 -125 -10 -27 -24 -59 -31 -70 -20
-31 -64 -218 -64 -270 0 -30 -5 -47 -14 -51 -38 -14 -59 -155 -30 -201 8 -13
35 -28 71 -38 32 -9 66 -25 76 -36 13 -14 25 -17 43 -13 19 5 29 1 40 -15 8
-11 25 -21 38 -21 34 0 87 -20 121 -45 17 -12 48 -28 70 -36 22 -8 54 -29 70
-48 37 -41 67 -53 111 -45 27 5 41 17 68 58 54 83 75 123 86 165 6 22 22 53
35 69 14 17 25 36 25 44 0 8 9 23 20 33 11 10 20 24 20 31 0 24 43 86 66 94
23 9 64 76 64 105 0 8 4 15 10 15 15 0 50 33 50 47 0 7 25 37 55 68 60 60 98
121 110 173 4 22 12 32 25 32 10 0 29 14 42 30 13 17 40 49 60 72 21 22 40 50
44 61 4 11 28 41 55 67 46 44 79 107 79 150 0 10 10 31 23 47 12 15 31 44 41
63 25 45 48 68 79 75 28 7 83 64 107 110 9 16 25 35 38 41 23 11 62 56 62 72
0 5 16 17 35 28 19 10 38 27 41 37 3 10 18 31 33 45 15 15 36 41 45 57 10 17
32 37 49 44 31 13 117 97 117 113 0 4 7 8 15 8 8 0 15 6 15 14 0 8 15 26 33
40 l32 26 -740 0 c-563 0 -744 -3 -753 -12z"/>
<path d="M5180 8645 c0 -8 5 -15 10 -15 6 0 10 7 10 15 0 8 -4 15 -10 15 -5 0
-10 -7 -10 -15z"/>
<path d="M5360 8607 c0 -10 -5 -15 -11 -12 -5 4 -18 0 -27 -8 -9 -9 -21 -16
-27 -16 -5 0 -11 -12 -13 -26 -4 -30 -18 -33 -27 -4 -4 11 -9 18 -12 15 -3 -2
-15 6 -27 19 l-22 24 -32 -29 c-25 -23 -32 -37 -32 -67 0 -29 -3 -34 -10 -23
-8 11 -10 -8 -10 -65 2 -168 1 -185 -10 -185 -7 0 -10 -30 -8 -92 3 -91 3 -91
35 -109 30 -17 33 -17 68 1 45 23 94 117 102 198 4 31 12 56 19 59 9 3 12 14
8 29 -4 15 1 33 14 51 40 57 63 200 37 236 -13 19 -15 19 -15 4z"/>
<path d="M4227 6303 c-5 -7 4 -17 20 -25 20 -10 28 -21 30 -45 2 -27 0 -30
-17 -26 -24 6 -37 23 -18 23 7 1 -2 7 -21 15 -19 9 -64 15 -107 15 l-73 0 -12
-41 c-15 -48 -56 -86 -104 -95 -47 -9 -63 0 -81 42 -11 27 -20 35 -37 32 -12
-2 -23 -11 -25 -22 -2 -10 -20 -39 -39 -64 -19 -25 -42 -63 -51 -84 -9 -21
-19 -38 -22 -38 -11 0 -2 -145 10 -190 8 -25 14 -49 15 -55 12 -75 70 -133
162 -161 83 -26 210 -25 248 1 32 23 35 25 95 53 25 12 53 22 62 22 19 0 58
45 58 67 0 21 52 63 72 57 12 -3 18 3 23 26 4 16 10 30 15 30 16 0 50 87 50
127 0 48 -32 144 -60 180 -11 14 -20 30 -20 35 0 26 -123 123 -146 114 -7 -3
-14 0 -17 7 -2 8 -5 8 -10 0z m150 -183 c7 -10 10 -26 7 -35 -3 -8 -1 -15 5
-15 6 0 11 -9 11 -20 0 -13 -7 -20 -20 -20 -11 0 -20 3 -20 8 -1 4 -5 26 -9
49 -11 55 2 72 26 33z"/>
<path d="M3752 6270 c-18 -10 -47 -39 -64 -65 -17 -26 -37 -49 -45 -52 -7 -3
-13 -12 -13 -19 0 -8 -7 -17 -15 -20 -9 -4 -15 -19 -15 -40 0 -19 -6 -45 -14
-57 -15 -24 -30 -140 -19 -151 13 -13 33 18 33 53 0 20 7 44 14 54 9 12 12 32
9 57 -6 43 12 72 94 152 24 22 40 45 37 49 -3 5 2 6 10 3 9 -3 16 -1 16 5 0 6
11 17 25 23 14 6 25 15 25 20 0 14 -43 8 -78 -12z"/>
<path d="M5139 5827 c-70 -40 -119 -78 -119 -93 0 -6 -18 -31 -40 -54 -22 -23
-40 -49 -40 -57 0 -8 -13 -28 -29 -43 -35 -35 -41 -66 -48 -235 -4 -124 0
-161 28 -233 18 -46 92 -132 137 -159 26 -15 56 -33 67 -40 79 -49 152 -59
228 -32 26 10 60 31 75 47 20 22 42 32 75 37 63 10 73 4 81 -44 7 -46 17 -49
61 -22 49 30 84 67 91 98 4 15 10 30 14 33 4 3 15 32 23 65 9 33 18 67 21 75
3 8 2 22 -4 30 -7 12 -14 12 -43 2 -43 -15 -93 -1 -83 24 3 9 6 23 6 33 0 9 6
26 14 37 14 19 15 19 45 -4 17 -12 37 -22 45 -22 36 0 46 74 21 146 -20 57
-80 181 -97 197 -7 7 -27 30 -45 50 -57 65 -124 105 -260 152 -72 25 -139 45
-149 45 -10 0 -44 -15 -75 -33z m95 -120 c36 -94 7 -175 -69 -196 -55 -15 -74
-4 -101 57 -30 68 -30 93 0 121 19 18 116 58 147 60 4 1 14 -18 23 -42z m424
-189 c-2 -3 8 -18 21 -32 20 -21 22 -28 11 -41 -18 -22 -47 -18 -54 8 -11 43
-7 79 10 75 8 -2 14 -6 12 -10z m0 -372 c5 -38 -14 -59 -39 -43 -24 15 -25 46
-1 63 24 18 36 12 40 -20z"/>
<path d="M3588 5769 c-6 -17 16 -72 25 -63 11 11 8 39 -6 58 -11 15 -15 16
-19 5z"/>
<path d="M4307 5233 c-12 -12 -7 -29 16 -56 18 -21 30 -25 65 -23 23 1 47 7
53 13 15 15 -6 52 -37 63 -29 11 -88 13 -97 3z"/>
<path d="M5425 4830 c-9 -15 13 -40 34 -40 10 0 28 11 41 25 l23 25 -46 0
c-25 0 -49 -5 -52 -10z"/>
</g>
</svg>
